<mxfile host="app.diagrams.net" agent="Mozilla/5.0 (Macintosh; Intel Mac OS X 10_15_7) AppleWebKit/605.1.15 (KHTML, like Gecko) Version/15.3 Safari/605.1.15" version="25.0.3">
  <diagram id="mUtRsw6hvwaEc5WmeWZf" name="第 1 页">
    <mxGraphModel dx="3332" dy="1708" grid="1" gridSize="10" guides="1" tooltips="1" connect="1" arrows="1" fold="1" page="0" pageScale="1" pageWidth="827" pageHeight="1169" background="none" math="0" shadow="0">
      <root>
        <mxCell id="0" />
        <mxCell id="1" parent="0" />
        <mxCell id="node0" value="&lt;p style=&quot;margin:0px;margin-top:4px;text-align:center;&quot;&gt;&lt;b&gt;CDP_BEHAVIOR_ATTRIBUTE&lt;/b&gt;&lt;/p&gt;&lt;hr size=&quot;1&quot;/&gt;&lt;p style=&quot;margin:0 0 0 4px;line-height:1.6;&quot;&gt; BU_CODE: varchar(16)&lt;br/&gt; CODE_TYPE  /* BEHAVIOR_ATTRIBUTE类型 */: varchar(30)&lt;br/&gt; BEHAVIOR_ATTRIB_NAME  /* BEHAVIOR_ATTRIBUTE名称 */: varchar(255)&lt;br/&gt; DISPLAY_NAME  /* 显示名称 */: varchar(255)&lt;br/&gt; DISPLAY_INDICATOR  /* 是否显示 */: char(1)&lt;br/&gt; IS_USE  /* 是否使用 */: char(1)&lt;br/&gt; STATUS  /* 是否有效 */: char(1)&lt;br/&gt; EVENT_NAME  /* event name */: varchar(255)&lt;br/&gt; CREATED: datetime&lt;br/&gt; CREATE_BY: varchar(100)&lt;br/&gt; LAST_UPDATED: datetime&lt;br/&gt; LAST_UPDATE_BY: varchar(100)&lt;/p&gt;&lt;hr size=&quot;1&quot;/&gt;&lt;p style=&quot;margin:0 0 0 4px;line-height:1.6;&quot;&gt; id: bigint&lt;/p&gt;" style="verticalAlign=top;align=left;overflow=fill;fontSize=14;fontFamily=Helvetica;html=1;rounded=0;shadow=0;comic=0;labelBackgroundColor=none;strokeWidth=1;" parent="1" vertex="1">
          <mxGeometry x="-750" y="-260" width="459" height="352" as="geometry" />
        </mxCell>
        <mxCell id="node1" value="&lt;p style=&quot;margin:0px;margin-top:4px;text-align:center;&quot;&gt;&lt;b&gt;CDP_BEHAVIOR_ATTRIBUTE_DETAIL&lt;/b&gt;&lt;/p&gt;&lt;hr size=&quot;1&quot;/&gt;&lt;p style=&quot;margin:0 0 0 4px;line-height:1.6;&quot;&gt; BU_CODE: varchar(16)&lt;br/&gt; BEHAVIOR_ATTRIB_ID  /* BEHAVIOR_ATTRIBUTE ID */: bigint&lt;br/&gt; RELATIONSHIP_NAME  /* relationship名称 */: varchar(255)&lt;br/&gt; STATUS  /* default:Y */: char(1)&lt;br/&gt; CREATED: datetime&lt;br/&gt; CREATE_BY: varchar(100)&lt;br/&gt; LAST_UPDATED: datetime&lt;br/&gt; LAST_UPDATE_BY: varchar(100)&lt;/p&gt;&lt;hr size=&quot;1&quot;/&gt;&lt;p style=&quot;margin:0 0 0 4px;line-height:1.6;&quot;&gt; id: bigint&lt;/p&gt;" style="verticalAlign=top;align=left;overflow=fill;fontSize=14;fontFamily=Helvetica;html=1;rounded=0;shadow=0;comic=0;labelBackgroundColor=none;strokeWidth=1;" parent="1" vertex="1">
          <mxGeometry x="-150" y="-250" width="382" height="256" as="geometry" />
        </mxCell>
        <mxCell id="node2" value="&lt;p style=&quot;margin:0px;margin-top:4px;text-align:center;&quot;&gt;&lt;b&gt;CDP_BEHAVIOR_ATTRIBUTE_ENTITY&lt;/b&gt;&lt;/p&gt;&lt;hr size=&quot;1&quot;/&gt;&lt;p style=&quot;margin:0 0 0 4px;line-height:1.6;&quot;&gt; BU_CODE: varchar(16)&lt;br/&gt; CODE_TYPE  /* 元数据类型：STATIC_ATTRIBUTE/BEHAVIOR_EVENT */: varchar(60)&lt;br/&gt; BEHAVIOR_ATTRIB_ID  /* behavior 关联id */: bigint&lt;br/&gt; ENTITY  /* 表名。eg: cdp_customer_member */: varchar(64)&lt;br/&gt; FIELD  /* 字段名。eg: PRODUCT_ID */: varchar(50)&lt;br/&gt; DISPLAY_NAME  /* 显示名称 */: varchar(255)&lt;br/&gt; ATTRIBUTE_CATEGORY  /* 属性分类 */: varchar(255)&lt;br/&gt; DATA_TYPE  /* 元数据类型：string, number,datetime */: varchar(20)&lt;br/&gt; DICTIONARY  /* 是否有字典：Y,N */: char(1)&lt;br/&gt; ACTIVE: varchar(10)&lt;br/&gt; IS_SHOW  /* 是否展示：Y,N */: char(1)&lt;br/&gt; SENSITIVE_FLAG  /* 是否脱敏：Y,N */: char(1)&lt;br/&gt; FUNCTION: varchar(100)&lt;br/&gt; FUNCTION_DESC: varchar(255)&lt;br/&gt; AGGREGATION: varchar(255)&lt;br/&gt; CREATED: datetime&lt;br/&gt; CREATE_BY: varchar(100)&lt;br/&gt; LAST_UPDATED: datetime&lt;br/&gt; LAST_UPDATE_BY: varchar(100)&lt;br/&gt; ATTRIB_PARENT_ID: bigint&lt;/p&gt;&lt;hr size=&quot;1&quot;/&gt;&lt;p style=&quot;margin:0 0 0 4px;line-height:1.6;&quot;&gt; id: bigint&lt;/p&gt;" style="verticalAlign=top;align=left;overflow=fill;fontSize=14;fontFamily=Helvetica;html=1;rounded=0;shadow=0;comic=0;labelBackgroundColor=none;strokeWidth=1;" parent="1" vertex="1">
          <mxGeometry x="-750" y="160" width="488" height="544" as="geometry" />
        </mxCell>
        <mxCell id="node3" value="&lt;p style=&quot;margin:0px;margin-top:4px;text-align:center;&quot;&gt;&lt;b&gt;CDP_ENTITY_RELATIONSHIP&lt;/b&gt;&lt;/p&gt;&lt;hr size=&quot;1&quot;/&gt;&lt;p style=&quot;margin:0 0 0 4px;line-height:1.6;&quot;&gt; BU_CODE: varchar(16)&lt;br/&gt; CODE_TYPE  /* CUSTOMER_BEHAVIOR/STATIC_ATTRIBUTE类型 */: varchar(30)&lt;br/&gt; RELATIONSHIP_NAME  /* BEHAVIOR_ATTRIBUTE名称 */: varchar(255)&lt;br/&gt; RELATIONSHIP_DESC  /* BEHAVIOR_ATTRIBUTE名称 */: varchar(255)&lt;br/&gt; ENTITY1  /* 关系表1 */: varchar(255)&lt;br/&gt; ENTITY2  /* 关系表2 */: varchar(255)&lt;br/&gt; RELATIONSHIP: varchar(255)&lt;br/&gt; STATUS  /* 是否有效 */: char(1)&lt;br/&gt; CREATED: datetime&lt;br/&gt; CREATE_BY: varchar(100)&lt;br/&gt; LAST_UPDATED: datetime&lt;br/&gt; LAST_UPDATE_BY: varchar(100)&lt;/p&gt;&lt;hr size=&quot;1&quot;/&gt;&lt;p style=&quot;margin:0 0 0 4px;line-height:1.6;&quot;&gt; id: bigint&lt;/p&gt;" style="verticalAlign=top;align=left;overflow=fill;fontSize=14;fontFamily=Helvetica;html=1;rounded=0;shadow=0;comic=0;labelBackgroundColor=none;strokeWidth=1;" parent="1" vertex="1">
          <mxGeometry x="-170" y="160" width="470" height="352" as="geometry" />
        </mxCell>
      </root>
    </mxGraphModel>
  </diagram>
</mxfile>
